<svg width="45" height="45" viewBox="0 0 45 45" fill="none" xmlns="http://www.w3.org/2000/svg">
<g id="Group 12">
<path id="Fill 1" fill-rule="evenodd" clip-rule="evenodd" d="M3.19824 22.4986C3.19824 30.1385 7.63812 36.7408 14.0763 39.8696L4.8693 14.6436C3.79835 17.044 3.19824 19.7004 3.19824 22.4986" fill="white"/>
<path id="Fill 3" fill-rule="evenodd" clip-rule="evenodd" d="M35.5296 21.5248C35.5296 19.1394 34.6727 17.4875 33.9378 16.2017C32.9594 14.6118 32.0424 13.2654 32.0424 11.6755C32.0424 9.90121 33.388 8.24962 35.2835 8.24962C35.3691 8.24962 35.4502 8.26027 35.5336 8.26504C32.0997 5.11904 27.5246 3.19824 22.4997 3.19824C15.7567 3.19824 9.82425 6.65789 6.37305 11.898C6.82589 11.9116 7.25265 11.9212 7.61514 11.9212C9.634 11.9212 12.7591 11.6762 12.7591 11.6762C13.7995 11.6149 13.9222 13.1431 12.8828 13.2661C12.8828 13.2661 11.8372 13.3891 10.6737 13.4501L17.7025 34.3567L21.9264 21.6886L18.9192 13.4494C17.8799 13.3884 16.8952 13.2654 16.8952 13.2654C15.8551 13.2044 15.9771 11.6141 17.0171 11.6755C17.0171 11.6755 20.2047 11.9204 22.1012 11.9204C24.1197 11.9204 27.2451 11.6755 27.2451 11.6755C28.2863 11.6141 28.4086 13.1423 27.3689 13.2654C27.3689 13.2654 26.3211 13.3884 25.1598 13.4494L32.1349 34.1977L34.0601 27.7643C34.8946 25.0946 35.5296 23.1771 35.5296 21.5248" fill="white"/>
<path id="Fill 5" fill-rule="evenodd" clip-rule="evenodd" d="M22.8379 24.187L17.0469 41.0148C18.776 41.5231 20.6046 41.8011 22.4993 41.8011C24.747 41.8011 26.9025 41.4125 28.9088 40.707C28.857 40.6244 28.81 40.5366 28.7715 40.4411L22.8379 24.187Z" fill="white"/>
<path id="Fill 7" fill-rule="evenodd" clip-rule="evenodd" d="M39.4355 13.2385C39.5185 13.8533 39.5655 14.5133 39.5655 15.2232C39.5655 17.1819 39.1997 19.3836 38.0979 22.1366L32.2021 39.1826C37.9403 35.8364 41.7999 29.6197 41.7999 22.4991C41.8003 19.1434 40.9431 15.9879 39.4355 13.2385" fill="white"/>
<g id="Group 11">
<mask id="mask0_0_358" style="mask-type:luminance" maskUnits="userSpaceOnUse" x="0" y="0" width="45" height="45">
<path id="Clip 10" fill-rule="evenodd" clip-rule="evenodd" d="M0 0H45V44.9985H0V0Z" fill="white"/>
</mask>
<g mask="url(#mask0_0_358)">
<path id="Fill 9" fill-rule="evenodd" clip-rule="evenodd" d="M22.4994 43.9672C10.6625 43.9672 1.03165 34.3364 1.03165 22.4987C1.03165 10.6617 10.6621 1.03165 22.4994 1.03165C34.3361 1.03165 43.9661 10.6617 43.9661 22.4987C43.9661 34.3364 34.3361 43.9672 22.4994 43.9672M22.4994 0C10.0936 0 0 10.0928 0 22.4987C0 34.9061 10.0936 44.9985 22.4994 44.9985C34.905 44.9985 45 34.9061 45 22.4987C44.9996 10.0928 34.905 0 22.4994 0" fill="white"/>
</g>
</g>
</g>
</svg>
