<svg width="50" height="41" viewBox="0 0 50 41" fill="none" xmlns="http://www.w3.org/2000/svg">
<path id="Fill 5" fill-rule="evenodd" clip-rule="evenodd" d="M39.8796 30.5902C39.903 31.0823 39.8704 31.58 39.9305 32.0667C39.9986 32.6185 40.3538 32.9592 40.9129 32.9964C41.547 33.0386 41.9457 32.6984 42.0582 32.0842C42.1286 31.7004 42.1194 31.3002 42.1271 30.9068C42.1375 30.3788 42.1298 29.8508 42.1298 29.2553C42.6919 29.2006 43.072 29.1488 43.4538 29.1304C43.944 29.1066 44.4368 29.1289 44.9264 29.0965C45.5519 29.0549 45.9228 28.6922 45.9932 28.0744C46.0604 27.4839 45.6238 27.0237 44.9039 26.9285C44.5168 26.8777 44.1192 26.9107 43.7264 26.8949C43.2484 26.8759 42.7706 26.8456 42.1218 26.8108C42.1218 25.907 42.1555 25.1259 42.1129 24.3491C42.0641 23.4562 41.6967 23.0326 41.0506 23.0016C40.3399 22.9675 39.9326 23.4262 39.8926 24.3853C39.8606 25.1577 39.8861 25.9325 39.8861 26.9039C38.9214 26.9039 38.1456 26.8738 37.373 26.9113C36.4211 26.9574 35.957 27.3819 36.0031 28.0821C36.0455 28.7219 36.4735 29.0718 37.3683 29.1123C38.1397 29.1468 38.9143 29.1194 39.7709 29.1194C39.8171 29.7307 39.8589 30.16 39.8796 30.5902V30.5902ZM33.0003 27.5716C33.0377 31.6944 36.4524 35.0467 40.5661 34.9994C44.6847 34.952 48.0312 31.5443 47.9998 27.4295C47.9684 23.3331 44.5238 19.9552 40.4231 20.0003C36.3007 20.0454 32.9632 23.45 33.0003 27.5716V27.5716ZM2 23.9366C2.09063 23.9576 2.18125 23.9789 2.27188 23.9999C2.4486 23.2316 2.63155 22.4647 2.80147 21.6947C3.51374 18.4681 4.21439 15.2386 4.93543 12.014C5.24299 10.6383 5.43331 10.5021 6.84905 10.4757C7.27329 10.4678 7.69782 10.4735 8.12234 10.4735C18.8292 10.4735 29.5358 10.4735 40.2427 10.4735H42V6.23259H40.243C32.7437 6.23259 25.2441 6.22294 17.7448 6.24394C16.8003 6.24649 16.0108 6.09329 15.3458 5.33408C14.5698 4.44834 13.6695 3.67325 12.8672 2.80907C12.3509 2.25329 11.791 1.98887 11.0125 2.00022C8.37185 2.03852 5.7301 2.00958 3.08893 2.02263C2.73464 2.02433 2.38063 2.11881 2 2.17413V23.9366ZM43.7676 10.5325C44.8791 10.5325 45.7956 10.5288 46.7118 10.5341C47.1292 10.5367 47.5531 10.515 47.9627 10.5794C48.6957 10.6947 49.0585 11.1174 48.9138 11.8542C48.544 13.7351 48.1046 15.6021 47.6766 17.4709C47.5299 18.1104 47.1055 18.4256 46.4481 18.3289C45.8787 18.2451 45.5541 17.7842 45.6712 17.0572C45.8494 15.9503 46.1257 14.8597 46.3493 13.7601C46.4129 13.4479 46.4386 13.1282 46.4952 12.7137H7.24573C7.14173 12.9926 6.99423 13.2806 6.92619 13.5866C5.37644 20.5723 3.83116 27.5593 2.30121 34.5495C2.19247 35.0456 2.13977 35.574 2.17685 36.0785C2.27695 37.4481 3.26987 38.5291 4.6038 38.7884C4.87566 38.8413 5.15728 38.8635 5.43444 38.8638C16.3002 38.8672 27.1657 38.8675 38.0315 38.8655C39.3755 38.8652 40.4699 38.4304 41.1229 36.9141C40.6068 36.8502 40.178 36.7954 39.7486 36.7448C33.7038 36.0299 29.8977 30.2338 31.6981 24.4844C32.9713 20.4184 36.7977 17.7276 41.0465 17.9102C45.2633 18.0913 48.8767 21.149 49.7779 25.2983C50.6891 29.4944 48.7423 33.7739 44.9412 35.6812C43.9991 36.1542 43.4718 36.7237 43.1021 37.7316C42.3821 39.6954 40.8374 40.7539 38.7604 40.9646C38.2543 41.016 37.7399 40.9961 37.2293 40.9961C26.9675 40.9975 16.7054 40.998 6.44325 40.9946C5.84042 40.9944 5.23145 41.0053 4.63587 40.9286C1.91782 40.5779 0.00559156 38.4175 0.00363974 35.6592C-0.00444637 24.4262 0.00252441 13.1931 0.00921637 1.96011C0.0103317 0.247161 0.234233 0.0244292 1.94793 0.0199295C5.19827 0.0112115 8.44917 0.0438338 11.6992 0.000243676C12.6171 -0.0121303 13.293 0.279502 13.897 0.955852C14.6108 1.75482 15.4359 2.45366 16.1388 3.26107C16.772 3.9886 17.4875 4.24339 18.4483 4.23889C26.0635 4.2043 33.6787 4.21921 41.2939 4.22005C43.7359 4.22033 43.7663 4.25295 43.7676 6.74968C43.7682 7.91509 43.7676 9.08021 43.7676 10.5325V10.5325Z" fill="url(#paint0_linear_0_507)"/>
<defs>
<linearGradient id="paint0_linear_0_507" x1="25" y1="-20.5007" x2="-15.2061" y2="28.5307" gradientUnits="userSpaceOnUse">
<stop stop-color="#E05976"/>
<stop offset="1" stop-color="rgba(49, 61, 236, 0.8392156863)"/>
</linearGradient>
</defs>
</svg>
