<svg width="50" height="50" viewBox="0 0 50 50" fill="none" xmlns="http://www.w3.org/2000/svg">
<path id="Fill 1" fill-rule="evenodd" clip-rule="evenodd" d="M27.0002 8.30677C27.4614 8.19424 27.8107 8.09538 28.1653 8.02502C29.0415 7.85189 29.9145 7.59722 30.7992 7.54304C33.923 7.35232 36.4799 9.82501 36.3897 12.8794C36.3019 15.8569 33.6597 18.161 30.5997 17.8661C29.7155 17.7806 28.851 17.5084 27.9751 17.3322C27.6774 17.2724 27.373 17.245 27.0167 17.1948V23.5596C27.5788 23.5839 28.0408 23.6196 28.5029 23.621C30.4361 23.6277 32.3699 23.6213 34.3031 23.6246C36.5598 23.6288 36.7687 24.0359 35.9433 26.068C35.4432 27.2986 35.0512 28.6295 34.9415 29.9419C34.8006 31.628 36.2486 32.9549 37.9321 32.9988C39.6102 33.0426 41.015 31.7888 41.1395 30.1042C41.1661 29.7395 41.1528 29.3469 41.0442 29.002C40.6822 27.8543 40.3177 26.7033 39.8619 25.5899C39.3182 24.2632 39.6603 23.6816 41.1352 23.6269C41.4175 23.6162 41.701 23.6241 41.9839 23.6241C43.9174 23.6238 45.8509 23.6291 47.7845 23.6193C48.1924 23.6171 48.6 23.559 49.0002 23.5272C48.6955 11.3706 37.5525 1.75072 27.0002 2.00483V8.30677ZM26.4261 47.9998C37.8262 48.045 47.9487 37.3454 48.0002 26.0124H41.617C41.7565 26.5199 41.8951 26.9182 41.9727 27.3283C42.1392 28.2087 42.3752 29.092 42.4033 29.9798C42.4996 33.0414 40.1745 35.4342 37.2052 35.4142C34.2499 35.394 31.9365 32.9463 32.0818 29.8958C32.1263 28.9621 32.4091 28.0398 32.5892 27.1136C32.6576 26.7605 32.7436 26.4111 32.8349 25.9999H26.3435C26.3435 27.3846 26.3448 28.6945 26.3432 30.0043C26.3412 31.4249 26.381 32.8472 26.3187 34.265C26.2728 35.3171 25.6563 35.6859 24.706 35.3271C24.4038 35.2129 24.1363 34.9939 23.8304 34.8994C22.7268 34.5591 21.6291 34.1639 20.4997 33.956C19.3785 33.7496 18.3863 34.1909 17.6805 35.1278C16.9048 36.1574 16.7851 37.3058 17.3595 38.4659C17.9335 39.6242 18.9265 40.3284 20.1726 40.1567C21.4833 39.9762 22.7956 39.5912 24.0291 39.0937C25.8519 38.3588 26.3287 38.5849 26.3404 40.5217C26.3526 42.5577 26.3387 44.5936 26.3476 46.6296C26.3496 47.0894 26.3991 47.549 26.4261 47.9998V47.9998ZM24.6168 22.914C24.6433 22.3792 24.6838 21.9229 24.6852 21.4666C24.6927 19.4533 24.6815 17.4397 24.691 15.4263C24.6997 13.5624 25.2085 13.2621 26.8703 13.9711C27.8893 14.4057 28.9572 14.7606 30.0362 15.001C30.6415 15.1361 31.3495 15.0863 31.949 14.9076C33.3784 14.4811 34.1971 12.9896 33.9595 11.4697C33.7193 9.93514 32.3903 8.73045 30.7972 8.92664C29.4841 9.0882 28.1744 9.51125 26.9364 10.0047C25.1719 10.7078 24.6972 10.4497 24.6902 8.49233C24.6832 6.43198 24.6932 4.37162 24.684 2.31155C24.6824 1.90821 24.6277 1.50514 24.5898 0.999906C18.0958 1.49417 12.7565 4.05469 8.51356 8.87597C5.00424 12.8635 2.4618 19.4553 3.09811 22.9984C4.59473 22.9984 6.11785 23.0035 7.64097 22.995C8.00474 22.9931 8.36822 22.946 8.84162 22.912C8.71497 22.4287 8.59474 22.0338 8.50937 21.6313C8.34479 20.8542 8.12636 20.079 8.06053 19.292C7.80556 16.2426 10.1276 13.6719 13.1273 13.6263C16.2151 13.579 18.6245 16.1061 18.396 19.2233C18.3316 20.1015 18.0707 20.9653 17.8955 21.8348C17.8261 22.179 17.7446 22.521 17.6576 22.914H24.6168ZM23.9053 25.3472C23.3023 25.3472 22.8369 25.3472 22.3714 25.3472C20.1604 25.3472 17.9495 25.3572 15.7388 25.3436C13.982 25.3327 13.6174 24.7602 14.3336 23.2205C14.5881 22.673 14.8542 22.1214 15.018 21.5447C15.2329 20.7892 15.4524 20.012 15.4917 19.2356C15.5829 17.4243 14.1419 15.9847 12.3645 16C10.6308 16.0151 9.27256 17.3808 9.2912 19.148C9.29685 19.6982 9.37763 20.2677 9.54342 20.7917C9.82191 21.6744 10.1704 22.5381 10.5356 23.3906C11.0983 24.7049 10.7288 25.2925 9.25844 25.3444C8.97656 25.3542 8.69412 25.3472 8.41167 25.3472C6.62438 25.3475 4.8368 25.3411 3.04922 25.3536C2.69504 25.3561 2.34171 25.4309 2.00023 25.471C2.18269 36.6348 12.2117 46.9062 23.8039 46.9999C24.0867 45.7324 24.0578 41.7826 23.757 40.7316C22.5666 40.9616 21.3848 41.2963 20.1825 41.4006C17.3007 41.6505 14.805 39.5162 14.5571 36.7006C14.3119 33.9194 16.2898 31.4365 19.1304 31.1526C20.1308 31.0525 21.1733 31.3002 22.1895 31.4401C22.7335 31.5152 23.2622 31.6984 23.9053 31.8599V25.3472ZM50.0002 25.0414C49.974 38.8073 38.7233 50.0211 24.9591 49.9999C11.2002 49.9787 -0.0170319 38.7245 0.000252765 24.9584C0.0172587 11.2073 11.2791 -0.017076 25.0422 -7.48876e-05C38.7975 0.0169262 50.0261 11.2831 50.0002 25.0414V25.0414Z" fill="url(#paint0_linear_0_487)"/>
<defs>
<linearGradient id="paint0_linear_0_487" x1="24.9445" y1="-26.1914" x2="-25.5018" y2="24.2406" gradientUnits="userSpaceOnUse">
<stop stop-color="#E05976"/>
<stop offset="1" stop-color="rgba(49, 61, 236, 0.8392156863)"/>
</linearGradient>
</defs>
</svg>
