<svg width="50" height="45" viewBox="0 0 50 45" fill="none" xmlns="http://www.w3.org/2000/svg">
<path id="Fill 27" fill-rule="evenodd" clip-rule="evenodd" d="M27.222 35.9638C27.2064 34.767 26.2054 33.7772 25.0115 33.7778C23.8266 33.7784 22.8004 34.7799 22.7781 35.9569C22.7553 37.1854 23.8494 38.2624 25.0785 38.2211C26.267 38.1812 27.2377 37.1588 27.222 35.9638V35.9638ZM29 35.9975C28.9928 38.1789 27.1615 40.004 24.9845 40C22.7901 39.996 20.9987 38.1909 21 35.9854C21.0016 33.7697 22.7791 31.9973 24.9965 32C27.196 32.0027 29.0075 33.8115 29 35.9975V35.9975ZM25.8996 27.9C25.9622 27.4745 26.04 27.1377 26.0573 26.7966C26.2765 22.4852 26.4878 18.1735 26.6977 13.8616C26.7123 13.5617 26.7266 13.2563 26.697 12.9594C26.588 11.866 25.8762 11.0985 24.9969 11.1C24.1192 11.1012 23.4005 11.8832 23.3002 12.963C23.277 13.2109 23.2857 13.4654 23.2984 13.7154C23.5222 18.1263 23.746 22.537 23.9817 26.947C23.9993 27.2763 24.1085 27.5986 24.1703 27.9H25.8996ZM28.587 20.671C28.4482 23.1765 28.3116 25.6827 28.1694 28.1883C28.0839 29.6952 27.8261 29.9607 26.3863 29.9874C25.456 30.0045 24.5252 30.0039 23.5949 29.9874C22.1691 29.9616 21.8791 29.6833 21.7936 28.1901C21.583 24.5051 21.3919 20.8191 21.191 17.1335C21.1321 16.0522 21.0561 14.9722 21.0069 13.8906C20.8798 11.0792 22.5127 9.04624 24.9216 9.00069C27.278 8.95633 29.1812 11.0464 28.9862 13.7442C28.8192 16.0502 28.7222 18.362 28.594 20.6713C28.5918 20.6713 28.5896 20.671 28.587 20.671V20.671ZM24.9451 42.9986C31.059 42.9986 37.1732 42.9989 43.2871 42.9974C43.7537 42.9974 44.2226 43.012 44.6865 42.9717C47.3732 42.7368 48.7807 40.1233 47.5509 37.6635C47.4242 37.4101 47.2762 37.1671 47.135 36.9211C41.3571 26.8793 35.5796 16.8372 29.8006 6.79599C29.2109 5.77151 28.6288 4.74218 28.0161 3.73198C27.2947 2.54309 26.2383 1.95706 24.8538 2.00245C23.391 2.0504 22.4566 2.87364 21.7506 4.10249C15.3898 15.1728 9.0183 26.237 2.65217 37.3042C2.51091 37.5496 2.37273 37.8006 2.26819 38.0635C1.3929 40.2703 2.74718 42.6412 5.06588 42.9412C5.57262 43.0069 6.09056 42.996 6.60318 42.9963C12.7171 42.9997 18.8312 42.9986 24.9451 42.9986V42.9986ZM24.9733 44.9749C18.5643 44.9749 12.1556 44.9924 5.74685 44.9672C2.88152 44.9559 0.729668 43.1816 0.125208 40.4347C-0.218843 38.8715 0.174836 37.4567 0.955225 36.1087C3.44834 31.8024 5.92947 27.4889 8.41785 23.1797C12.1734 16.6755 15.9309 10.1719 19.6898 3.66943C19.948 3.22274 20.1956 2.7653 20.4964 2.34889C22.7392 -0.756983 27.182 -0.787838 29.4685 2.28662C29.7747 2.69849 30.0289 3.15254 30.2868 3.59923C36.4154 14.2085 42.5411 24.8195 48.6671 35.4302C48.8313 35.715 48.9888 36.0037 49.1564 36.2862C51.5475 40.3169 48.5288 45.0697 44.1995 44.9992C38.3495 44.9041 32.4967 44.9769 26.645 44.9777C26.088 44.9777 25.5306 44.9777 24.9733 44.9777V44.9749Z" fill="url(#paint0_linear_0_532)"/>
<defs>
<linearGradient id="paint0_linear_0_532" x1="25" y1="-22.5" x2="-19.7514" y2="27.2238" gradientUnits="userSpaceOnUse">
<stop stop-color="#E05976"/>
<stop offset="1" stop-color="rgba(49, 61, 236, 0.8392156863)"/>
</linearGradient>
</defs>
</svg>
