<svg width="50" height="44" viewBox="0 0 50 44" fill="none" xmlns="http://www.w3.org/2000/svg">
<path id="Fill 3" fill-rule="evenodd" clip-rule="evenodd" d="M23.9438 33.9499C24.3494 33.9499 24.7628 33.998 25.1586 33.9377C25.6523 33.8626 25.9638 33.5307 25.9972 33.0339C26.0309 32.5319 25.7556 32.1044 25.2722 32.0582C24.429 31.9775 23.5648 31.9804 22.7222 32.0673C22.2367 32.1174 21.9621 32.5616 22.0042 33.0512C22.0458 33.5334 22.3622 33.8644 22.8632 33.9438C23.2169 34.0001 23.5828 33.9839 23.9432 33.9998C23.9435 33.9831 23.9435 33.9667 23.9438 33.9499V33.9499ZM33.0801 6.99984C33.0238 8.62342 32.896 10.0705 33.1647 11.5777C34.9071 10.4547 34.9036 10.4583 36.3594 11.9408C37.037 12.6311 37.7315 13.3039 38.4339 13.9998C39.0055 13.4855 39.4654 13.0713 40 12.5902C39.1456 11.6923 38.4409 10.9477 37.7312 10.2077C36.4878 8.91062 36.4799 8.81729 37.4738 7.33866C37.5129 7.28014 37.4592 7.1559 37.442 6.99984H33.0801ZM39.0066 8.64596C39.766 9.41865 40.4538 10.1188 41.1425 10.8179C42.2736 11.9659 42.2826 12.2386 41.1878 13.347C40.4606 14.0834 39.744 14.8328 38.9802 15.5306C38.2848 16.1658 37.9299 16.1542 37.2388 15.5073C36.3896 14.7127 35.5764 13.8802 34.6577 12.9755C34.1115 13.5104 33.6318 13.9698 33.1637 14.4408C32.7394 14.8677 32.3096 15.2887 31.638 14.9998C31.0313 14.7384 31.0069 14.1808 31.0066 13.63C31.005 11.2489 30.9882 8.86781 31.0153 6.48699C31.0281 5.35746 31.3504 5.0282 32.4716 5.01521C34.9057 4.98708 37.3403 5.00574 39.775 5.00791C40.2902 5.00818 40.7783 5.09286 41.0293 5.6188C41.3161 6.2205 40.9835 6.64283 40.5835 7.04297C40.0797 7.54727 39.5834 8.05887 39.0066 8.64596V8.64596ZM18 20.9998V6.23098C16.5821 5.89391 7.03818 5.93876 6 6.2793V20.9998H18ZM4.00418 12.4163C4.00418 9.83995 3.99197 7.26334 4.00929 4.68703C4.01838 3.30895 4.28765 3.02059 5.66948 3.01439C10.2038 2.99466 14.7382 2.99579 19.2725 3.01298C20.7038 3.01834 20.9878 3.32051 20.9909 4.78117C21.0026 9.93409 21.0037 15.087 20.9901 20.2399C20.9864 21.6896 20.6887 21.9856 19.2472 21.9898C14.7601 22.0033 10.2729 22.0028 5.78565 21.9906C4.2564 21.9864 4.01384 21.7257 4.00674 20.1458C3.99538 17.5695 4.00361 14.9929 4.00418 12.4163V12.4163ZM28 37.9998H22V41.8098C23.6778 42.1016 27.0022 42.0456 28 41.7227V37.9998ZM47.9919 30.9998H2C2 31.6346 2 32.1687 2 32.7027C1.99972 34.9146 2.08291 34.9974 4.36773 34.9977C18.1313 34.9985 31.8948 34.9983 45.6581 34.9972C46.0779 34.9972 46.5006 35.0127 46.9163 34.9687C47.5493 34.9014 47.963 34.5514 47.9841 33.9104C48.0146 32.9683 47.9919 32.0248 47.9919 30.9998V30.9998ZM47.9108 28.9998C47.9542 28.6311 47.9945 28.4487 47.9945 28.2663C47.9987 20.0378 48.0046 11.8096 47.9942 3.58111C47.9925 2.24596 47.7254 2.00574 46.2898 2.0049C32.1135 1.9982 17.9372 1.9982 3.76089 2.00462C2.22194 2.00546 2.00632 2.23031 2.00492 3.81797C1.99708 11.8138 1.99932 19.8099 2.0066 27.806C2.00688 28.2013 2.08753 28.5965 2.13177 28.9998H47.9108ZM30.3024 41.8984H31.9101C34.3216 41.8984 36.7331 41.8984 39.1446 41.8987C39.4229 41.8987 39.7014 41.8933 39.9793 41.9009C41.1197 41.9321 41.6202 42.2709 41.5951 42.9887C41.5717 43.6603 41.1211 43.9509 40.0453 43.9865C39.9063 43.991 39.7671 43.9887 39.6281 43.9887C29.8894 43.9887 20.1509 43.9896 10.4121 43.9862C9.99605 43.9859 9.53375 44.0524 9.17783 43.8942C8.85255 43.7497 8.50832 43.3809 8.41308 43.0423C8.27188 42.5402 8.61276 42.1284 9.11489 42.0022C9.51175 41.9023 9.94008 41.904 10.3548 41.9026C12.9052 41.8947 15.456 41.8984 18.0065 41.8984C18.5094 41.8984 19.0124 41.8984 19.6284 41.8984C19.8738 40.5082 19.7518 39.2308 19.7248 37.8075C19.1416 37.7755 18.6498 37.7258 18.158 37.7253C13.4742 37.7194 8.79044 37.7233 4.10668 37.7202C3.64354 37.7199 3.17427 37.7348 2.71837 37.6697C1.24986 37.4602 0.196029 36.3595 0.0306021 34.8756C-0.0159068 34.4602 0.00442344 34.0363 0.00442344 33.6164C0.00330945 23.8135 0.00330945 14.0105 0.00414494 4.20791C0.00414494 3.78771 -0.0134004 3.36498 0.0272602 2.94843C0.186282 1.31896 1.29553 0.213194 2.91722 0.0673298C3.37786 0.0258146 3.84378 0.0361934 4.3072 0.0361934C18.1268 0.0347909 31.9466 0.0810747 45.7659 7.86041e-06C48.9065 -0.0185057 50.0238 1.49007 49.9996 4.30581C49.915 14.0148 49.967 23.7245 49.967 33.4341C49.967 33.7143 49.9718 33.9945 49.9634 34.2745C49.8974 36.4607 48.7414 37.6442 46.5972 37.7169C46.2265 37.7295 45.8553 37.7216 45.4843 37.7216C40.9861 37.7219 36.4875 37.7216 31.9892 37.7216C31.4838 37.7216 30.978 37.7216 30.3024 37.7216V41.8984Z" fill="url(#paint0_linear_0_611)"/>
<defs>
<linearGradient id="paint0_linear_0_611" x1="25" y1="-22.0007" x2="-18.6433" y2="27.5936" gradientUnits="userSpaceOnUse">
<stop stop-color="#E05976"/>
<stop offset="1" stop-color="rgba(49, 61, 236, 0.8392156863)"/>
</linearGradient>
</defs>
</svg>
