<svg width="39" height="51" viewBox="0 0 39 51" fill="none" xmlns="http://www.w3.org/2000/svg">
<path id="Fill 13" fill-rule="evenodd" clip-rule="evenodd" d="M24.046 35.9978C24.4189 35.9976 24.7971 36.0054 25.163 35.9491C25.6893 35.8677 25.9911 35.5286 25.9998 35.0217C26.0085 34.5104 25.6952 34.1713 25.1866 34.0681C24.8266 33.9951 24.4447 34.004 24.0727 34.0037C17.6766 34.0005 11.2806 34.0013 4.88423 34.0024C4.60435 34.0024 4.32053 33.9886 4.04542 34.0274C3.35189 34.1247 2.95707 34.5177 3.00372 35.0642C3.05318 35.6494 3.43451 35.9334 4.01816 35.9755C4.38994 36.0021 4.76452 35.9986 5.1377 35.9989C8.2659 36.0005 11.3938 35.9997 14.5217 35.9997C17.6966 35.9997 20.8711 36.0011 24.046 35.9978V35.9978ZM24.0259 25.9954C24.3989 25.995 24.7797 26.0226 25.1435 25.9314C25.6583 25.8022 25.9757 25.3065 25.9987 24.5707C26.0218 23.8298 25.7274 23.3202 25.2196 23.1279C24.9539 23.0272 24.6663 23.0066 24.3885 23.0062C17.8011 23.0003 11.2138 22.9944 4.62641 23.0098C3.5001 23.0126 2.98301 23.5509 3.00043 24.5553C3.01756 25.5325 3.52285 25.9882 4.68399 25.993C7.9545 26.0056 11.2247 25.9973 14.4949 25.9973C17.6719 25.9977 20.8489 25.9993 24.0259 25.9954V25.9954ZM23.6829 31.9929C24.0573 31.9925 24.4345 32.021 24.8052 31.9665C25.6065 31.849 26.053 31.2738 25.995 30.4264C25.9302 29.4804 25.481 29.0859 24.8491 29.0248C24.616 29.0023 24.3816 29.0054 24.1474 29.0054C17.6889 29.0047 11.2302 29.0031 4.77172 29.0106C4.40018 29.011 3.96361 28.9368 3.67481 29.1759C3.36125 29.435 3.008 30.015 3.00012 30.4659C2.9928 30.9105 3.33001 31.5389 3.63766 31.7744C3.97543 32.0332 4.45225 31.9835 4.86855 31.9854C8.05119 31.9993 11.2336 31.9929 14.4162 31.9929C17.5051 31.9937 20.594 31.9941 23.6829 31.9929V31.9929ZM5 16.9534C8.10187 16.9664 11.0398 17.0832 14 16.8887V7H5V16.9534ZM3.0069 11.4257C3.0069 9.52367 2.98954 7.62161 3.0124 5.71983C3.02948 4.31231 3.30418 4.02583 4.70341 4.01667C7.92739 3.99521 11.1517 3.99349 14.3759 4.01725C15.6863 4.02726 15.9781 4.32405 15.9847 5.64914C16.005 9.548 16.005 13.4474 15.9853 17.3466C15.9787 18.6588 15.6776 18.9704 14.3736 18.9805C11.1016 19.0062 7.82898 19.0079 4.55695 18.977C3.3366 18.9653 3.03295 18.639 3.0153 17.417C2.98635 15.4205 3.00748 13.4228 3.0069 11.4257V11.4257ZM31.0288 43.8697C22.8256 43.8697 14.6225 43.8695 6.41928 43.8703C6.00453 43.8706 5.587 43.8489 5.17585 43.8909C4.38372 43.9711 3.94958 44.3804 4.00468 44.9864C4.06642 45.6662 4.51025 45.9438 5.13238 45.9838C5.40814 46.0015 5.68502 45.9993 5.96161 45.9993C14.9483 46.0001 23.9351 46.0004 32.9215 45.9993C33.2441 45.9993 33.568 46.0043 33.8886 45.9767C34.5288 45.9218 34.897 45.5517 34.9707 44.9085C35.0078 44.5845 34.9989 44.254 34.9992 43.9266C35.0003 31.2835 35.0006 18.6404 34.9981 5.99729C34.9981 5.62347 35.0147 5.24063 34.9435 4.87835C34.8317 4.30888 34.4654 3.96123 33.869 4.00346C33.3463 4.04033 33.0171 4.37616 32.9514 4.89608C32.8933 5.35773 32.9058 5.83008 32.9058 6.29765C32.9035 18.1447 32.9041 29.9917 32.9041 41.8387V43.8697H31.0288ZM35.0953 48.8372C26.7956 48.8372 18.4956 48.8369 10.1958 48.8383C9.78099 48.8383 9.36086 48.8149 8.95292 48.8723C8.39322 48.9506 8.01685 49.2817 8.00051 49.8908C7.98445 50.5016 8.34559 50.8493 8.90169 50.9523C9.26033 51.0187 9.63642 50.9964 10.0048 50.9964C18.9963 50.9984 27.9878 50.9984 36.9793 50.997C37.3017 50.997 37.6274 51.0074 37.9459 50.9669C38.5131 50.8949 38.8714 50.5598 38.9537 49.9788C38.9994 49.6564 38.9983 49.3259 38.9985 48.9989C39.0005 36.3127 39.0008 23.6264 38.9977 10.9401C38.9977 10.567 38.9999 10.1861 38.9304 9.82263C38.831 9.30301 38.4704 9.0017 37.9528 9.00001C37.4338 8.99832 37.0591 9.30132 36.9766 9.82066C36.8965 10.3243 36.9024 10.845 36.9021 11.3584C36.8985 23.1551 36.8993 34.9521 36.8993 46.7488C36.8993 47.3545 36.8993 47.9602 36.8993 48.8372H35.0953ZM28.8282 40C29.1156 37.8339 29.0143 4.01117 28.7319 3H2V40H28.8282ZM0.00432964 20.8413C0.00432964 14.7189 0.00405321 8.59648 0.00432964 2.47407C0.00432964 2.14712 -0.0061746 1.81933 0.0101346 1.49295C0.0687372 0.331496 0.354287 0.0565116 1.53905 0.00482912C1.72288 -0.00303561 1.90698 0.00230117 2.09108 0.00230117C11.0197 0.00202029 19.948 0.00202029 28.8763 0.00258205C29.1984 0.00258205 29.5221 -0.00949592 29.8422 0.0185924C30.5371 0.0792631 30.9349 0.468005 30.9824 1.18257C31.0073 1.55502 30.9985 1.93 30.9985 2.30358C30.999 14.7821 30.9996 27.2603 30.9985 39.7388C30.9985 41.8553 30.8691 41.9935 28.8368 41.994C19.9546 41.9969 11.0722 41.9954 2.18976 41.9949C1.86773 41.9949 1.54292 42.0137 1.2242 41.9792C0.37723 41.8873 0.0955507 41.6008 0.020086 40.7497C-0.0128089 40.3787 0.00460607 40.0026 0.00460607 39.629C0.00405322 33.3664 0.00405321 27.1039 0.00432964 20.8413V20.8413Z" fill="url(#paint0_linear_0_512)"/>
<defs>
<linearGradient id="paint0_linear_0_512" x1="19.5" y1="-25.5" x2="-29.7183" y2="12.1376" gradientUnits="userSpaceOnUse">
<stop stop-color="#E05976"/>
<stop offset="1" stop-color="rgba(49, 61, 236, 0.8392156863)"/>
</linearGradient>
</defs>
</svg>
