<svg width="51" height="46" viewBox="0 0 51 46" fill="none" xmlns="http://www.w3.org/2000/svg">
<path id="Fill 15" fill-rule="evenodd" clip-rule="evenodd" d="M39 20.0239C39.0097 18.3976 37.6368 17.0076 36.014 17.0001C34.3808 16.9928 33.0114 18.351 33.0001 19.9902C32.9885 21.6475 34.3164 22.9892 35.9788 23C37.6287 23.0108 38.9903 21.6698 39 20.0239V20.0239ZM29 33.7507C30.6384 34.1105 40.7306 34.07 42 33.6996C41.9431 32.6578 41.9867 31.5513 41.8043 30.4871C41.2624 27.3299 38.6345 25.0501 35.6056 25.0009C32.5289 24.951 29.7559 27.2308 29.179 30.4052C28.985 31.4733 29.0541 32.5934 29 33.7507V33.7507ZM31.7156 24.161C29.6305 20.5107 29.8052 17.9986 32.2359 16.1104C34.2386 14.5546 37.1237 14.6429 39.0318 16.3182C41.2476 18.2642 41.3559 20.8885 39.2867 24.105C39.5581 24.3125 39.8308 24.5413 40.1232 24.7417C42.6321 26.4601 43.9659 28.8027 43.9952 31.841C44.0014 32.4954 44.0006 33.1501 43.9986 33.8048C43.9926 35.8773 43.8801 35.9892 41.7168 35.9917C38.3589 35.9959 35.001 35.9934 31.6434 35.9928C30.6029 35.9925 29.5617 36.0156 28.5223 35.981C27.3157 35.9408 27.0495 35.6628 27.0177 34.4471C26.9935 33.5127 26.9929 32.5761 27.0236 31.642C27.1188 28.7268 28.4061 26.4491 30.8256 24.7892C31.1274 24.5823 31.4235 24.3673 31.7156 24.161V24.161ZM8.32085 19.9893C9.42436 19.9893 10.5294 20.0189 11.6314 19.98C12.5027 19.9491 12.9826 19.5689 12.9996 19.0161C13.0169 18.4576 12.5439 18.0415 11.6778 18.0269C9.5714 17.9914 7.4632 17.9917 5.35681 18.0245C4.45217 18.0383 4.00895 18.4057 4.00015 18.9742C3.99136 19.5455 4.44944 19.9397 5.31134 19.977C6.31208 20.0205 7.31737 19.9872 8.32085 19.9872V19.9893ZM5.72489 12.0068C4.53079 12.0164 3.99224 12.3439 4.00012 13.0093C4.00828 13.6699 4.53955 13.9845 5.74794 13.988C8.90341 13.9974 12.0589 13.9931 15.2144 13.9883C15.5525 13.9877 15.958 14.0477 16.211 13.9022C16.5412 13.7125 16.8945 13.3759 16.9771 13.0474C17.097 12.5709 16.7338 12.1946 16.2031 12.074C15.8792 12.0004 15.5294 12.0076 15.1913 12.0062C13.6865 11.9998 12.1814 12.0033 10.6766 12.0033C9.02595 12.0036 7.37527 11.9939 5.72489 12.0068V12.0068ZM15.1821 8.98935C16.4701 8.97183 17.0521 8.44233 16.9964 7.40442C16.9451 6.44653 16.4171 6.01337 15.1894 6.0078C12.0347 5.99426 8.88025 6.00143 5.72552 6.0074C5.43587 6.0078 5.13776 6.00979 4.85802 6.09698C4.32854 6.2622 4.00683 6.73836 4.00013 7.49837C3.99371 8.26636 4.31164 8.75047 4.85131 8.88703C5.22926 8.98258 5.62266 8.98855 6.00964 8.99134C7.51386 9.00209 9.01866 8.99572 10.5229 8.99572C12.0761 8.99413 13.6292 9.01005 15.1821 8.98935V8.98935ZM6.20629 24.0667C6.14302 23.14 5.84265 22.8438 4.92609 22.7783C4.3762 22.7389 3.82162 22.7703 3.2698 22.7558C2.55191 22.7373 2.17003 22.3537 2.1272 21.6397C2.10814 21.3174 2.11173 20.9935 2.11173 20.6703C2.1109 15.1761 2.11062 9.68151 2.112 4.18695C2.11228 3.81778 2.10454 3.44639 2.14268 3.08027C2.20347 2.49587 2.56186 2.16719 3.13192 2.10312C3.49639 2.06235 3.86721 2.074 4.23528 2.07372C8.79186 2.07206 13.3487 2.07261 17.9053 2.07261C20.9893 2.07261 24.0731 2.06429 27.1569 2.07677C28.6471 2.08287 28.9008 2.35469 28.9256 3.86798C28.9375 4.6066 28.9262 5.34549 28.943 6.08383C28.9571 6.7165 29.239 7.15362 29.9113 7.20993C30.4681 7.25652 30.9326 6.85324 30.9566 6.16926C30.9992 4.97216 31.0522 3.75648 30.8886 2.57824C30.8019 1.95223 30.3617 1.30404 29.9171 0.816156C29.2597 0.0947356 28.3177 -0.00234148 27.3663 0.00126424C23.5 0.0156871 19.6337 0.00681149 15.7674 0.00681149C11.717 0.00681149 7.66667 0.017906 3.61631 0.000154784C2.55744 -0.00456039 1.60357 0.201243 0.85335 1.00199C0.14154 1.76141 -0.00242485 2.69113 6.20599e-05 3.69491C0.0149835 9.51259 0.00724648 15.3303 0.00779913 21.148C0.00779913 21.379 0.000614708 21.6106 0.0174705 21.8405C0.135461 23.4642 1.16504 24.5914 2.76054 24.8366C3.16286 24.8985 3.57017 24.9276 4.05677 24.9808C4.08523 25.4404 4.1264 25.8468 4.13276 26.2534C4.14575 27.0841 4.10402 27.9176 4.15072 28.746C4.22008 29.9756 4.97555 30.3367 6.02143 29.6702C6.25382 29.5221 6.46604 29.3418 6.68599 29.1743C8.00599 28.1697 9.37324 27.2203 10.6311 26.143C11.7438 25.19 12.9232 24.6874 14.3982 24.8646C15.0329 24.9409 15.6872 24.9032 16.3291 24.8599C17.123 24.8064 17.5309 24.4134 17.5206 23.7998C17.5107 23.1902 17.1051 22.8432 16.2885 22.7758C15.9683 22.7495 15.6397 22.8033 15.323 22.76C12.8005 22.4166 10.6385 23.0842 8.80374 24.9068C8.13807 25.5683 7.28838 26.0431 6.28753 26.7754C6.25741 25.6826 6.26128 24.8727 6.20629 24.0667V24.0667ZM43.793 43.0001C43.793 41.4538 43.7724 40.2762 43.7986 39.0994C43.8278 37.7981 44.1144 37.5108 45.3574 37.4699C45.9592 37.45 46.5618 37.4699 47.1641 37.4639C48.8108 37.4477 48.9942 37.2707 48.9956 35.5698C49.0014 28.3339 49.0017 21.0981 48.9953 13.8622C48.9939 12.2725 48.756 12.0093 47.2481 12.0073C39.4184 11.9977 31.589 11.9977 23.7596 12.0073C22.2553 12.0093 22.0074 12.2764 22.0058 13.8602C21.998 21.0961 21.9983 28.332 22.0058 35.5678C22.0074 37.2593 22.2064 37.4588 23.8395 37.4622C27.5458 37.4704 31.2524 37.4906 34.9582 37.4488C35.9814 37.4372 36.8291 37.6643 37.6407 38.3349C39.1881 39.6137 40.8048 40.8056 42.3981 42.0262C42.7539 42.299 43.1326 42.5408 43.793 43.0001V43.0001ZM45.8408 39.3487C45.8408 41.0819 45.8496 42.5713 45.8367 44.0604C45.8309 44.7458 45.987 45.5324 45.1821 45.8998C44.454 46.2321 43.9701 45.6636 43.4683 45.2815C41.37 43.6843 39.2418 42.123 37.2092 40.4426C36.2109 39.6172 35.1907 39.3231 33.9282 39.3476C30.5253 39.4139 27.1203 39.3779 23.7163 39.3613C23.1703 39.3585 22.5975 39.333 22.0847 39.1667C21.0513 38.8312 20.3685 38.0795 20.1408 36.9899C20.0275 36.4477 20.0068 35.878 20.0062 35.3207C19.9977 28.2164 19.999 21.1122 20.004 14.0082C20.0043 13.5424 20.0073 13.0685 20.088 12.6129C20.3425 11.173 21.3765 10.2002 22.8003 10.0395C23.2101 9.99312 23.6271 10.0018 24.0405 10.0016C31.6768 9.99958 39.3131 9.99958 46.9494 10.0016C47.363 10.0016 47.78 9.99228 48.1898 10.0384C49.6595 10.2041 50.7305 11.2513 50.9485 12.7368C51.0024 13.1042 50.998 13.4823 50.9983 13.8557C51.0008 21.0998 51.0005 28.3442 50.9983 35.5887C50.9983 35.9154 51.0021 36.2455 50.9601 36.5682C50.7584 38.127 49.6742 39.2065 48.1271 39.3389C47.4501 39.3967 46.7645 39.3487 45.8408 39.3487V39.3487Z" fill="url(#paint0_linear_0_522)"/>
<defs>
<linearGradient id="paint0_linear_0_522" x1="25.5" y1="-23" x2="-20.2563" y2="27.7297" gradientUnits="userSpaceOnUse">
<stop stop-color="#E05976"/>
<stop offset="1" stop-color="rgba(49, 61, 236, 0.8392156863)"/>
</linearGradient>
</defs>
</svg>
