<svg width="207" height="48" viewBox="0 0 207 48" fill="none" xmlns="http://www.w3.org/2000/svg">
<path d="M67.1422 16.229L60.1382 23.229L67.1422 30.169" stroke="white" stroke-width="1.5" stroke-linecap="round"/>
<path d="M126.49 16.229L133.494 23.229L126.49 30.169" stroke="white" stroke-width="1.5" stroke-linecap="round"/>
<mask id="mask0_0_636" style="mask-type:luminance" maskUnits="userSpaceOnUse" x="0" y="11" width="13" height="25">
<path fill-rule="evenodd" clip-rule="evenodd" d="M0 11.6259H12.1679V35.3189H0V11.6259Z" fill="white"/>
</mask>
<g mask="url(#mask0_0_636)">
<path fill-rule="evenodd" clip-rule="evenodd" d="M8.923 18.4869C8.923 15.9859 7.706 14.4309 5.881 14.4309H3.38C3.313 14.4309 3.245 14.4989 3.245 14.5659V22.3059C3.245 22.3739 3.313 22.4409 3.38 22.4409H5.881C7.706 22.4409 8.923 20.9539 8.923 18.4869M12.168 18.4189C12.168 22.4079 9.903 25.0439 6.524 25.0439H3.38C3.313 25.0439 3.245 25.1119 3.245 25.1789V34.9809C3.245 35.1829 3.11 35.3189 2.907 35.3189H0.339C0.135 35.3189 0 35.1829 0 34.9809V11.9639C0 11.7609 0.135 11.6259 0.339 11.6259H6.388C9.836 11.6259 12.168 14.3639 12.168 18.4189" fill="white"/>
</g>
<path fill-rule="evenodd" clip-rule="evenodd" d="M21.9477 29.9108V27.6128C21.9477 27.5448 21.8807 27.4778 21.8127 27.4778H19.7507C18.0277 27.4778 16.7767 28.3898 16.7767 30.3168C16.7767 32.0398 17.7227 32.7498 19.0077 32.7498C20.4607 32.7498 21.9477 31.8038 21.9477 29.9108M25.1927 23.4888V34.9808C25.1927 35.1828 25.0577 35.3188 24.8547 35.3188H22.2857C22.0827 35.3188 21.9477 35.1828 21.9477 34.9808V34.2368C21.9477 34.1358 21.8807 34.0678 21.7787 34.1698C20.9007 35.1828 19.6837 35.5888 18.2637 35.5888C16.3377 35.5888 13.4307 34.8118 13.4307 30.5868C13.4307 26.3958 16.3377 24.9088 19.8527 24.9088H21.8127C21.8807 24.9088 21.9477 24.8408 21.9477 24.7738V23.7938C21.9477 21.9008 20.9007 20.6498 19.5147 20.6498C18.3987 20.6498 17.5537 21.4948 17.4187 22.7118C17.4187 22.9488 17.2837 23.0498 17.0807 23.0498H14.3097C14.1067 23.0498 13.9717 22.9148 13.9717 22.7118C14.2077 19.8048 16.5067 17.8448 19.5817 17.8448C22.8607 17.8448 25.1927 20.0758 25.1927 23.4888" fill="white"/>
<path fill-rule="evenodd" clip-rule="evenodd" d="M35.5341 29.7755V23.4215C35.5341 21.7995 34.5541 20.6505 33.1341 20.6505C31.7151 20.6505 30.7011 21.7995 30.7011 23.4215V29.7755C30.7011 31.3975 31.7151 32.5135 33.1341 32.5135C34.5541 32.5135 35.5341 31.3975 35.5341 29.7755M35.8721 18.1155H38.4411C38.6431 18.1155 38.7791 18.2505 38.7791 18.4535V34.8115C38.7791 39.4085 37.0211 42.5515 30.6671 42.2135C30.4301 42.1795 30.3291 42.0445 30.3291 41.8415V39.6785C30.3291 39.4755 30.4641 39.3405 30.7011 39.3405C34.6211 39.4755 35.5341 37.6165 35.5341 34.5075V33.7975C35.5341 33.6965 35.4661 33.6625 35.3651 33.7635C34.5201 34.9125 33.2691 35.3185 32.0861 35.3185C29.0781 35.3185 27.4561 33.1895 27.4561 29.9785V23.2185C27.4561 19.9065 29.1461 17.8445 32.0861 17.8445C33.3031 17.8445 34.5201 18.2505 35.3651 19.4335C35.4661 19.5345 35.5341 19.5005 35.5341 19.3995V18.4535C35.5341 18.2505 35.6691 18.1155 35.8721 18.1155" fill="white"/>
<path fill-rule="evenodd" clip-rule="evenodd" d="M44.3578 23.4215V25.2125C44.3578 25.2805 44.4258 25.3485 44.4928 25.3485H49.1238C49.1908 25.3485 49.2588 25.2805 49.2588 25.2125V23.4215C49.2588 21.7995 48.2448 20.6505 46.7918 20.6505C45.3718 20.6505 44.3578 21.7995 44.3578 23.4215M52.1318 28.0515H44.4928C44.4258 28.0515 44.3578 28.1195 44.3578 28.1875V30.0125C44.3578 31.6345 45.3718 32.7835 46.7918 32.7835C48.0758 32.7835 48.9548 31.9045 49.1908 30.7225C49.2588 30.5195 49.3598 30.4515 49.5628 30.4515L52.0638 30.5865C52.2668 30.5865 52.4018 30.7225 52.3678 30.9245C52.0638 33.7975 50.1038 35.5885 46.7918 35.5885C43.2758 35.5885 41.1128 33.4935 41.1128 30.2485V23.2185C41.1128 20.0415 43.2758 17.8445 46.7918 17.8445C50.3398 17.8445 52.4698 20.0415 52.4698 23.2185V27.7135C52.4698 27.9165 52.3348 28.0515 52.1318 28.0515" fill="white"/>
<path fill-rule="evenodd" clip-rule="evenodd" d="M153.487 14.465H145.916C145.849 14.465 145.781 14.533 145.781 14.6V21.934C145.781 22.002 145.849 22.07 145.916 22.07H150.547C150.75 22.07 150.884 22.205 150.884 22.408V24.537C150.884 24.74 150.75 24.875 150.547 24.875H145.916C145.849 24.875 145.781 24.943 145.781 25.01V32.378C145.781 32.446 145.849 32.513 145.916 32.513H153.487C153.69 32.513 153.825 32.648 153.825 32.851V34.981C153.825 35.183 153.69 35.319 153.487 35.319H142.875C142.672 35.319 142.536 35.183 142.536 34.981V11.998C142.536 11.795 142.672 11.66 142.875 11.66H153.487C153.69 11.66 153.825 11.795 153.825 11.998V14.127C153.825 14.33 153.69 14.465 153.487 14.465" fill="white"/>
<path fill-rule="evenodd" clip-rule="evenodd" d="M159.547 17.9801C159.547 18.0471 159.615 18.1151 159.682 18.1151H162.048C162.251 18.1151 162.386 18.2501 162.386 18.4531V20.1431C162.386 20.3461 162.251 20.4811 162.048 20.4811H159.682C159.615 20.4811 159.547 20.5491 159.547 20.6161V34.9801C159.547 35.1831 159.412 35.3181 159.209 35.3181H156.674C156.471 35.3181 156.336 35.1831 156.336 34.9801V20.6161C156.336 20.5491 156.269 20.4811 156.201 20.4811H154.917C154.714 20.4811 154.579 20.3461 154.579 20.1431V18.4531C154.579 18.2501 154.714 18.1151 154.917 18.1151H156.201C156.269 18.1151 156.336 18.0471 156.336 17.9801V17.1011C156.336 13.0451 157.891 11.4911 161.643 11.4911H162.082C162.285 11.4911 162.42 11.6261 162.42 11.8291L162.352 13.8901C162.352 14.1271 162.217 14.2281 162.014 14.2281H161.676C160.155 14.2281 159.547 15.1751 159.547 17.2021V17.9801Z" fill="white"/>
<path fill-rule="evenodd" clip-rule="evenodd" d="M168.689 17.9801C168.689 18.0471 168.757 18.1151 168.824 18.1151H171.19C171.393 18.1151 171.528 18.2501 171.528 18.4531V20.1431C171.528 20.3461 171.393 20.4811 171.19 20.4811H168.824C168.757 20.4811 168.689 20.5491 168.689 20.6161V34.9801C168.689 35.1831 168.554 35.3181 168.351 35.3181H165.816C165.613 35.3181 165.478 35.1831 165.478 34.9801V20.6161C165.478 20.5491 165.411 20.4811 165.343 20.4811H164.059C163.856 20.4811 163.721 20.3461 163.721 20.1431V18.4531C163.721 18.2501 163.856 18.1151 164.059 18.1151H165.343C165.411 18.1151 165.478 18.0471 165.478 17.9801V17.1011C165.478 13.0451 167.033 11.4911 170.785 11.4911H171.224C171.427 11.4911 171.562 11.6261 171.562 11.8291L171.494 13.8901C171.494 14.1271 171.359 14.2281 171.156 14.2281H170.818C169.297 14.2281 168.689 15.1751 168.689 17.2021V17.9801Z" fill="white"/>
<path fill-rule="evenodd" clip-rule="evenodd" d="M176.201 23.4215V25.2125C176.201 25.2805 176.269 25.3485 176.336 25.3485H180.967C181.034 25.3485 181.102 25.2805 181.102 25.2125V23.4215C181.102 21.7995 180.088 20.6505 178.635 20.6505C177.215 20.6505 176.201 21.7995 176.201 23.4215M183.975 28.0515H176.336C176.269 28.0515 176.201 28.1195 176.201 28.1875V30.0125C176.201 31.6345 177.215 32.7835 178.635 32.7835C179.919 32.7835 180.798 31.9045 181.034 30.7225C181.102 30.5195 181.203 30.4515 181.406 30.4515L183.907 30.5865C184.11 30.5865 184.245 30.7225 184.211 30.9245C183.907 33.7975 181.947 35.5885 178.635 35.5885C175.119 35.5885 172.956 33.4935 172.956 30.2485V23.2185C172.956 20.0415 175.119 17.8445 178.635 17.8445C182.183 17.8445 184.313 20.0415 184.313 23.2185V27.7135C184.313 27.9165 184.178 28.0515 183.975 28.0515" fill="white"/>
<path fill-rule="evenodd" clip-rule="evenodd" d="M186.346 30.215V23.219C186.346 20.042 188.543 17.845 192.024 17.845C195.539 17.845 197.702 20.042 197.702 22.847V23.286C197.702 23.489 197.567 23.624 197.365 23.624L194.796 23.726C194.593 23.726 194.458 23.59 194.458 23.388V23.05C194.458 21.799 193.478 20.65 192.024 20.65C190.571 20.65 189.591 21.799 189.591 23.422V30.012C189.591 31.634 190.571 32.784 192.024 32.784C193.478 32.784 194.458 31.634 194.458 30.384V30.046C194.458 29.843 194.593 29.708 194.796 29.708L197.365 29.742C197.567 29.742 197.702 29.877 197.702 30.08V30.587C197.702 33.493 195.539 35.589 192.024 35.589C188.543 35.589 186.346 33.493 186.346 30.215" fill="white"/>
<mask id="mask1_0_636" style="mask-type:luminance" maskUnits="userSpaceOnUse" x="199" y="13" width="8" height="23">
<path fill-rule="evenodd" clip-rule="evenodd" d="M199.023 13.8231H206.797V35.3181H199.023V13.8231Z" fill="white"/>
</mask>
<g mask="url(#mask1_0_636)">
<path fill-rule="evenodd" clip-rule="evenodd" d="M206.459 20.4811H204.093C204.025 20.4811 203.958 20.5491 203.958 20.6161V30.1141C203.958 32.0061 204.634 32.5131 205.918 32.4791H206.222C206.425 32.4791 206.56 32.6151 206.56 32.8171V34.9811C206.56 35.1831 206.425 35.3181 206.222 35.3181H205.174C202.572 35.3181 200.814 34.6421 200.814 31.2621V20.6161C200.814 20.5491 200.747 20.4811 200.679 20.4811H199.361C199.158 20.4811 199.023 20.3461 199.023 20.1431V18.4531C199.023 18.2501 199.158 18.1151 199.361 18.1151H200.679C200.747 18.1151 200.814 18.0471 200.814 17.9801V14.1611C200.814 13.9581 200.95 13.8231 201.152 13.8231H203.62C203.822 13.8231 203.958 13.9581 203.958 14.1611V17.9801C203.958 18.0471 204.025 18.1151 204.093 18.1151H206.459C206.662 18.1151 206.797 18.2501 206.797 18.4531V20.1431C206.797 20.3461 206.662 20.4811 206.459 20.4811" fill="white"/>
</g>
<path d="M106.505 11.8453L96.5612 43.8873L86.6162 11.8453" stroke="white"/>
<path d="M75.5605 11.8453H117.561" stroke="white"/>
<mask id="mask2_0_636" style="mask-type:luminance" maskUnits="userSpaceOnUse" x="73" y="0" width="48" height="48">
<path fill-rule="evenodd" clip-rule="evenodd" d="M73.0864 0H120.034V47.5356H73.0864V0Z" fill="white"/>
</mask>
<g mask="url(#mask2_0_636)">
<path fill-rule="evenodd" clip-rule="evenodd" d="M110.512 -0.000400066H109.56H83.5604H82.6084L82.0084 0.7386L74.0084 10.5836L73.0864 11.7186L73.8874 12.9416L94.8874 44.9836L96.5604 47.5356L98.2334 44.9836L119.233 12.9416L120.034 11.7186L119.112 10.5836L111.112 0.7386L110.512 -0.000400066ZM109.56 1.9996L117.56 11.8456L96.5604 43.8876L75.5604 11.8456L83.5604 1.9996H109.56Z" fill="white"/>
<path fill-rule="evenodd" clip-rule="evenodd" d="M106.505 11.8453L96.561 43.8876L120.035 11.8453L106.505 11.8453Z" fill="white"/>
</g>
<path d="M86.6162 11.8453L96.5602 1.9993L106.505 11.8453" stroke="white"/>
</svg>
